<?xml version="1.0" encoding="utf-8"?>
<!-- Generator: Adobe Illustrator 27.0.0, SVG Export Plug-In . SVG Version: 6.00 Build 0)  -->
<svg version="1.1" id="Capa_1" xmlns="http://www.w3.org/2000/svg" xmlns:xlink="http://www.w3.org/1999/xlink" x="0px" y="0px"
	 viewBox="0 0 800 543" style="enable-background:new 0 0 800 543;" xml:space="preserve">
<style type="text/css">
	.st0{fill:#FFFFFF;}
</style>
<g>
	<g>
		<rect x="15.76" y="367.97" class="st0" width="16.08" height="113.28"/>
		<path class="st0" d="M165.51,367.96c-1.82,0-111.78,0-111.78,0v113.33c0,0,99.31,0,111.78,0c11.35,0,18.4-12.06,18.4-19.3
			c0-1.69,0-53.66,0-73.09C183.91,372.11,169.7,367.96,165.51,367.96z M165.73,450.46c0,6.94-5.8,14.85-13.37,14.85
			c-11.61,0-80.31,0-80.31,0v-81.44c0,0,77.45,0,80.31,0c2.86,0,13.37,3.81,13.37,14.72S165.73,448.53,165.73,450.46z"/>
		<polygon class="st0" points="204.11,481.29 204.11,367.95 311.19,368.01 311.25,385.16 224.11,385.16 224.11,413.32 
			307.66,413.03 307.68,430.18 224.13,430.25 224.11,464.17 311.25,464.17 311.25,481.35 		"/>
		<path class="st0" d="M447.83,408.55c0-8.16,0,0,0-19.34c0-15.27-12.22-21.24-18.4-21.24c-1.95,0-100.76,0-100.76,0v113.36h17.54
			l0-53.33h56.06l23.14,53.33h22.47l-24.06-53.33C444.5,430.17,447.83,410.83,447.83,408.55z M348.28,412.77v-29.52
			c0,0,62.06,0,71.37,0c4.92,0,9.2,4.83,9.2,10.73c0,1.55,0,8.94,0,8.94c0,5.14-4.64,9.85-9.2,9.85
			C417.15,412.77,348.28,412.77,348.28,412.77z"/>
		<polygon class="st0" points="543.44,458.36 481.49,367.97 464.16,367.97 464.16,481.29 481.49,481.29 481.49,400.87 
			534.46,481.29 553.77,481.29 605.46,400.87 605.46,481.29 622.75,481.29 622.75,367.97 605.28,367.97 		"/>
		<polygon class="st0" points="717.2,367.97 701.71,367.97 634.85,481.29 656.53,481.29 709.45,391.52 762.33,481.29 784.24,481.29 
					"/>
		<path class="st0" d="M59.42,506.8c0,0-22.89,0-23.74,0c-0.84,0-4.43,2.21-4.43,5.98c0,5.14,0,15.05,0,15.82
			c0,1.46,1.82,6.14,4.77,6.14c3.87,0,23.4,0,23.4,0v-6.14c0,0-22.15,0-22.67,0c-0.52,0-1-0.15-1-1.07c0-0.92,0-13.8,0-13.8
			s-0.07-0.95,0.89-0.95c0.95,0,22.78,0,22.78,0V506.8z"/>
		<polygon class="st0" points="160.93,506.79 164.8,506.79 177.44,534.74 171.68,534.74 162.78,515.14 154.17,534.74 148.36,534.74 
					"/>
		<polygon class="st0" points="622.56,506.78 626.45,506.78 638.98,534.74 633.33,534.74 624.45,514.96 615.56,534.74 
			609.93,534.74 		"/>
		<path class="st0" d="M756.84,525.23c2.92-1.16,3.83-5.6,3.83-7.07c0-0.98,0-3,0-4.41c0-4.01-3.1-6.97-4.7-6.97
			c-0.7,0-12.02,0-15.57,0c-4.23,0-5.42,5.34-5.42,7.06c0,0.67,0,20.89,0,20.89h4.34v-9.26h11.93l3.4,9.26h6.13
			C760.77,534.74,757.7,527.36,756.84,525.23z M755.47,519.07c-0.58,0-16.12,0-16.12,0s0-4.85,0-5.11c0-0.26,0.18-0.78,0.82-0.78
			c0.64,0,15.04,0,15.27,0s0.67,0.14,0.67,0.98s0,3.65,0,3.93C756.11,518.36,756.15,519.07,755.47,519.07z"/>
		<rect x="392.22" y="506.79" class="st0" width="4.55" height="27.95"/>
		<path class="st0" d="M499.15,506.78c0,0,0,18.17,0,20.13c0,5.3,2.43,7.83,4.97,7.83c3.7,0,18.11,0,18.11,0v-6.17
			c0,0-17.47,0-18.03,0c-0.56,0-0.56-0.32-0.56-0.89s0-20.91,0-20.91H499.15z"/>
		<path class="st0" d="M290.94,506.81c-1.16,0-12.9,0-15.46,0c-3.38,0-5.16,4.28-5.16,6.07c0,0.72,0,20.24,0,21.93h4.46v-10.09
			c0,0,12.92,0,16.29,0c3.37,0,5.07-4.67,5.07-6.69c0-0.88,0-2.19,0-4.26C296.14,508.87,292.51,506.81,290.94,506.81z
			 M290.94,518.61c-0.59,0-16.22,0-16.22,0v-4.73c0,0,0.03-0.83,0.67-0.83c0.65,0,15.3,0,15.63,0s0.56,0.31,0.56,1.01s0,3.29,0,3.55
			C291.58,517.87,291.65,518.61,290.94,518.61z"/>
	</g>
</g>
</svg>
